<svg xmlns="http://www.w3.org/2000/svg" viewBox="0 0 374.4 489.6"><defs><style>.cls-1,.cls-2{fill:#ff6803}.cls-2{isolation:isolate;font-size:314.56px;font-family:PTSans-Bold,PT Sans;font-weight:700}</style></defs><title>big-book-with-bookmark3-orange.svg</title><g id="Слой_2" data-name="Слой 2"><g id="Слой_1-2" data-name="Слой 1"><path class="cls-1" d="M360.9 69.5a15.41 15.41 0 0 1-15.4-15.4V42.4A15.41 15.41 0 0 1 360.9 27a13.5 13.5 0 0 0 0-27H44.3A44.39 44.39 0 0 0 0 44.3v323.1a44.39 44.39 0 0 0 44.3 44.3h11.8v64.4a13.45 13.45 0 0 0 6.9 11.8 13 13 0 0 0 6.6 1.7 13.51 13.51 0 0 0 7-2l42-25.6 42.1 25.6a13.45 13.45 0 0 0 13.6.3 13.45 13.45 0 0 0 6.9-11.8v-64.4h179.7a13.44 13.44 0 0 0 13.5-13.5V83a13.38 13.38 0 0 0-13.5-13.5zM27 44.3A17.37 17.37 0 0 1 44.3 27h277.2a41.36 41.36 0 0 0-2.9 15.4v11.7a41.74 41.74 0 0 0 2.9 15.4H27zM154.2 452l-28.5-17.3a13.69 13.69 0 0 0-13.7 0l-28.9 17.4v-40.4h71.1V452zm193.2-67.3H44.3A17.37 17.37 0 0 1 27 367.4V96.5h320.4z"/><text class="cls-2" transform="translate(98.05 351.79)">3</text></g></g></svg>