<svg xmlns="http://www.w3.org/2000/svg" viewBox="0 0 25.6 25.6"><defs><style>.cls-1{fill:#b5b5b5}</style></defs><title>calendar-grey</title><g id="Слой_2" data-name="Слой 2"><g id="Слой_1-2" data-name="Слой 1"><path class="cls-1" d="M23.47 2.4H20V.8a.8.8 0 0 0-1.6 0v1.6h-4.8V.8a.8.8 0 0 0-1.6 0v1.6H7.2V.8a.8.8 0 1 0-1.6 0v1.6H2.13A2.14 2.14 0 0 0 0 4.53v18.93a2.14 2.14 0 0 0 2.13 2.14h21.34a2.14 2.14 0 0 0 2.13-2.14V4.53a2.14 2.14 0 0 0-2.13-2.13zM24 23.46a.53.53 0 0 1-.53.54H2.13a.53.53 0 0 1-.53-.54V4.53A.53.53 0 0 1 2.13 4H5.6v1.6a.8.8 0 0 0 1.6 0V4H12v1.6a.8.8 0 0 0 1.6 0V4h4.8v1.6a.8.8 0 0 0 1.6 0V4h3.47a.53.53 0 0 1 .53.53zm0 0"/><path class="cls-1" d="M5.6 9.6h3.2V12H5.6zm0 4h3.2V16H5.6zm0 4h3.2V20H5.6zm5.6 0h3.2V20h-3.2zm0-4h3.2V16h-3.2zm0-4h3.2V12h-3.2zm5.6 8H20V20h-3.2zm0-4H20V16h-3.2zm0-4H20V12h-3.2z"/></g></g></svg>