<svg xmlns="http://www.w3.org/2000/svg" viewBox="0 0 392 391.92"><defs><style>.cls-1{fill:#b0b0b0}</style></defs><title>gift-icon</title><g id="Слой_2" data-name="Слой 2"><path class="cls-1" d="M363.3 89h-76.8c19-29.1 15-65.5-9-81.5-24.2-16.1-59.6-5.5-79 23.7a49.18 49.18 0 0 0-2.6 4.3c-.8-1.4-1.7-2.9-2.6-4.3-19.4-29.2-54.8-39.8-79-23.7s-28.1 52.4-9 81.5H28.5A28.49 28.49 0 0 0 0 117.52v246a28.53 28.53 0 0 0 28.5 28.4h335a28.55 28.55 0 0 0 28.5-28.5v-245.9A28.85 28.85 0 0 0 363.3 89zM225.1 48.92c8.3-12.6 19.7-17 26.9-17a13.48 13.48 0 0 1 7.8 2.2c5 3.3 6.2 9.4 6.6 12.9.9 8-1.7 17-6.8 24.9-8.3 12.5-19.7 17-26.9 17a13.48 13.48 0 0 1-7.8-2.2c-8.1-5.6-10.1-22.4.2-37.8zM125.2 47c.4-3.4 1.7-9.6 6.6-12.9a14 14 0 0 1 7.8-2.2c7.2 0 18.6 4.4 26.9 17 10.3 15.4 8.3 32.3.2 37.7a14 14 0 0 1-7.8 2.2c-7.2 0-18.6-4.4-26.9-17-5.2-7.8-7.6-16.8-6.8-24.8zm-92.8 76.5h147v235.8h-147zm179.7 235.8V123.52h147v235.8z" id="Слой_1-2" data-name="Слой 1"/></g></svg>