<svg xmlns="http://www.w3.org/2000/svg" viewBox="0 0 92.9 92.8"><defs><style>.cls-1{fill:#f60}</style></defs><title>info-icon-orange</title><g id="Слой_2" data-name="Слой 2"><g id="Слой_1-2" data-name="Слой 1"><path class="cls-1" d="M46.5 92.8A46.4 46.4 0 1 0 0 46.4a46.43 46.43 0 0 0 46.5 46.4zm0-86.4A39.9 39.9 0 1 1 6.6 46.3 39.95 39.95 0 0 1 46.5 6.4z"/><path class="cls-1" d="M38.7 66.8a3.3 3.3 0 1 0 0 6.6h21.5a3.3 3.3 0 0 0 0-6.6h-7.5V37.9a3.27 3.27 0 0 0-3.3-3.3H38.7a3.3 3.3 0 1 0 0 6.6h7.5v25.6h-7.5zm11.6-42.9a5.3 5.3 0 1 1-5.3-5.3 5.27 5.27 0 0 1 5.3 5.3z"/></g></g></svg>