<svg xmlns="http://www.w3.org/2000/svg" viewBox="0 0 51.8 58.16"><defs><style>.cls-1,.cls-2{fill:#f60;stroke:#f60;stroke-miterlimit:10}.cls-1{stroke-width:2px}</style></defs><title>sheet-icon-orange</title><g id="Слой_2" data-name="Слой 2"><g id="Слой_1-2" data-name="Слой 1"><path class="cls-1" d="M49 15.46v37.4a2.68 2.68 0 0 1-2.8 2.5H5.6a2.68 2.68 0 0 1-2.8-2.5V5.26a2.68 2.68 0 0 1 2.8-2.5h29.5A.88.88 0 0 0 36 2a.82.82 0 0 0-.9-.8H5.6A4.39 4.39 0 0 0 1 5.36V53a4.45 4.45 0 0 0 4.6 4.2h40.6a4.39 4.39 0 0 0 4.6-4.2V17.86a29.9 29.9 0 0 1-1.8-2.4z"/><path class="cls-1" d="M49.9 18.06H35.1a.9.9 0 0 1-.9-.9V2.36a.9.9 0 0 1 1.8 0v13.9h13.9a.9.9 0 1 1 0 1.8z"/><path class="cls-1" d="M49.9 18.06a1.08 1.08 0 0 1-.7-.3L34.4 2.56a.93.93 0 0 1 0-1.3.93.93 0 0 1 1.3 0l14.8 15.2a.93.93 0 0 1 0 1.3.86.86 0 0 1-.6.3z"/><path class="cls-2" d="M36.8 26.36H13.3a1.6 1.6 0 1 0 0 3.2h23.5A1.58 1.58 0 0 0 38.4 28a1.64 1.64 0 0 0-1.6-1.6zm0 7.64H13.3a1.6 1.6 0 1 0 0 3.2h23.5a1.58 1.58 0 0 0 1.6-1.6 1.72 1.72 0 0 0-1.6-1.6zm0 7.66H13.3a1.6 1.6 0 1 0 0 3.2h23.5a1.58 1.58 0 0 0 1.6-1.6 1.64 1.64 0 0 0-1.6-1.6z"/></g></g></svg>