<svg xmlns="http://www.w3.org/2000/svg" viewBox="0 0 42.38 40.64"><defs><style>.cls-1{fill:none;stroke:#b0b0b0;stroke-linecap:round;stroke-linejoin:round;stroke-width:4px}</style></defs><title>star-icon</title><g id="Слой_2" data-name="Слой 2"><path class="cls-1" d="M23 3.2l4.3 8.8a2.09 2.09 0 0 0 1.6 1.1l9.7 1.4a2 2 0 0 1 1.1 3.5l-7 6.8a2.11 2.11 0 0 0-.6 1.8l1.7 9.6a2.08 2.08 0 0 1-3 2.2l-8.7-4.5a2.12 2.12 0 0 0-1.9 0l-8.7 4.5a2.08 2.08 0 0 1-3-2.2l1.7-9.6a1.93 1.93 0 0 0-.6-1.8l-7-6.8a2.07 2.07 0 0 1 1.1-3.5l9.7-1.4A2.09 2.09 0 0 0 15 12l4.3-8.8a2 2 0 0 1 3.7 0z" id="Слой_1-2" data-name="Слой 1"/></g></svg>