<svg xmlns="http://www.w3.org/2000/svg" viewBox="0 0 381.41 381.4"><defs><style>.cls-1{fill:#b0b0b0;stroke:#afafb0;stroke-miterlimit:10;stroke-width:3px}</style></defs><title>talk-icon</title><g id="Слой_2" data-name="Слой 2"><g id="Слой_1-2" data-name="Слой 1"><path class="cls-1" d="M324.41 56.9a189.27 189.27 0 0 0-267.6 0c-69.1 69.1-73.9 179.8-11.9 254.4-6.1 12.2-15.8 26.5-30.3 33.6a17.78 17.78 0 0 0 5.1 33.5 93.25 93.25 0 0 0 15 1.1c16.7 0 41.4-3.9 66.6-22.1a189.14 189.14 0 0 0 223.1-300.5zm-15.3 252.2a167.67 167.67 0 0 1-203.4 26.1 10.59 10.59 0 0 0-13.1 1.7l-.9.6c-21.7 16.8-43 20.3-57 20.3h-.1c16.2-11.8 26.5-29.4 32.5-43.1a11.29 11.29 0 0 0 .6-7 11.09 11.09 0 0 0-2.6-6.1c-58.6-66.2-55.5-167 7-229.5 65.4-65.4 171.7-65.4 237 0s65.3 171.7 0 237z"/><path class="cls-1" d="M203.91 190.7a13.3 13.3 0 1 1-13.3-13.3 13.29 13.29 0 0 1 13.3 13.3zm68.5 0a13.3 13.3 0 1 1-13.3-13.3 13.29 13.29 0 0 1 13.3 13.3zm-137 0a13.3 13.3 0 1 1-13.3-13.3 13.29 13.29 0 0 1 13.3 13.3z"/></g></g></svg>